<?xml version="1.0" standalone="no"?>
<!DOCTYPE svg PUBLIC "-//W3C//DTD SVG 20010904//EN"
 "http://www.w3.org/TR/2001/REC-SVG-20010904/DTD/svg10.dtd">
<svg version="1.0" xmlns="http://www.w3.org/2000/svg"
 width="512pt" height="512pt" viewBox="0 0 512 512"
 preserveAspectRatio="xMidYMid meet">

<g transform="translate(0,512) scale(0.100000,-0.100000)"
fill="#2D2274" stroke="none">
<path d="M0 4366 l0 -115 1448 -4 c1583 -3 1481 0 1733 -62 348 -86 697 -296
936 -564 215 -241 362 -534 434 -861 21 -98 23 -134 27 -508 3 -294 1 -407 -8
-417 -15 -18 -154 -68 -250 -90 -143 -32 -278 -43 -500 -40 -333 4 -576 55
-667 138 -22 20 -23 28 -23 174 0 171 -19 319 -52 403 -73 186 -212 310 -428
380 -200 65 -314 70 -1572 70 l-1078 0 0 -115 0 -115 1058 0 c1358 -1 1464 -7
1623 -91 153 -82 219 -219 219 -455 l0 -91 -50 -32 c-161 -105 -221 -310 -143
-496 35 -84 75 -137 138 -187 l55 -43 0 -622 0 -623 115 0 115 0 0 576 c0 545
1 576 18 569 40 -17 216 -55 337 -71 187 -26 604 -26 760 0 17 3 62 10 100 17
63 10 160 31 208 45 16 5 17 -27 17 -565 l0 -571 110 0 110 0 0 614 0 613 59
49 c126 104 192 260 171 399 -19 121 -86 230 -176 286 l-34 21 0 246 c0 408
-41 665 -149 934 -107 270 -268 507 -482 713 -302 290 -668 480 -1079 559 -74
14 -151 29 -170 33 -19 4 -686 8 -1482 10 l-1448 4 0 -115z m3059 -2740 c140
-72 254 -104 453 -130 475 -62 953 3 1207 164 35 23 66 38 69 35 3 -3 8 -32
10 -65 7 -102 -47 -167 -198 -233 -290 -129 -925 -156 -1310 -57 -95 24 -238
83 -298 124 -78 52 -108 135 -81 229 l10 38 44 -40 c24 -22 66 -51 94 -65z"/>
</g>
</svg>
